<svg width="100" height="100" viewBox="0 0 55 40" fill="none" xmlns="http://www.w3.org/2000/svg">
<path d="M14.8003 25.7002C15.8003 25.7002 16.5003 26.5002 16.5003 27.4002C16.5003 28.4002 15.7003 29.1002 14.8003 29.1002C13.8003 29.1002 13.1003 28.3002 13.1003 27.4002C13.0003 26.5002 13.8003 25.7002 14.8003 25.7002Z" fill="#A674E5"/>
<path d="M38.4002 18.2002C39.4002 18.2002 40.1002 19.0002 40.1002 19.9002C40.1002 20.9002 39.3002 21.6002 38.4002 21.6002C37.5002 21.6002 36.7002 20.8002 36.7002 19.9002C36.8002 19.0002 37.6002 18.2002 38.4002 18.2002Z" fill="#A674E5"/>
<path d="M4.90039 11.2998V13.5998H28.8004C27.8004 15.0998 27.2004 16.8998 27.0004 18.7998H13.9004V21.1998H26.9004C27.1004 23.0998 27.7004 24.8998 28.7004 26.3998H18.8004V28.6998H30.7004C32.8004 30.4998 35.5004 31.6998 38.5004 31.6998C45.0004 31.6998 50.2004 26.4998 50.2004 19.9998C50.2004 13.4998 44.9004 8.2998 38.4004 8.2998C35.4004 8.2998 32.7004 9.3998 30.6004 11.2998H4.90039ZM29.2004 19.8998C29.2004 14.7998 33.3004 10.6998 38.4004 10.6998C43.5004 10.6998 47.6004 14.7998 47.6004 19.8998C47.6004 24.9998 43.5004 29.0998 38.4004 29.0998C33.4004 29.0998 29.2004 24.9998 29.2004 19.8998Z" fill="#A674E5"/>
</svg>